<svg xmlns="http://www.w3.org/2000/svg" viewBox="0 0 1100 1100" width="1100" height="1100">
  <defs>
    <filter id="rough" x="-20%" y="-20%" width="140%" height="140%">
      <feTurbulence type="fractalNoise" baseFrequency="0.012 0.015" numOctaves="2" seed="11" result="noise"></feTurbulence>
      <feDisplacementMap in="SourceGraphic" in2="noise" scale="6" xChannelSelector="R" yChannelSelector="G"></feDisplacementMap>
    </filter>
  </defs>

  <g filter="url(#rough)" fill="#ffffff" stroke="#F9506E" stroke-width="12" stroke-linecap="round" stroke-linejoin="round">
    
    <ellipse cx="540" cy="610" rx="255" ry="300"></ellipse>
    
    <ellipse cx="0" cy="0" rx="120" ry="98" transform="translate(360 820) rotate(-28)"></ellipse>
    <ellipse cx="0" cy="0" rx="120" ry="98" transform="translate(720 820) rotate(28)"></ellipse>
    <ellipse cx="0" cy="0" rx="55" ry="66" transform="translate(360 818) rotate(-28)"></ellipse>
    <ellipse cx="0" cy="0" rx="55" ry="66" transform="translate(720 818) rotate(28)"></ellipse>
    
    <circle cx="425" cy="210" r="60"></circle>
    <circle cx="655" cy="210" r="60"></circle>
    <ellipse cx="445" cy="238" rx="28" ry="30"></ellipse>
    <ellipse cx="635" cy="238" rx="28" ry="30"></ellipse>
    
    <circle cx="540" cy="318" r="160"></circle>
    
    <path transform="translate(-10 22)" d="M 550 415 C 470 295, 320 270, 250 360 C 185 443, 205 565, 300 660 C 375 735, 470 800, 550 855 C 630 800, 725 735, 800 660 C 895 565, 915 443, 850 360 C 780 270, 630 295, 550 415 Z"></path>
    
    <ellipse cx="0" cy="0" rx="56" ry="80" transform="translate(250 560) rotate(-14)"></ellipse>
    <ellipse cx="0" cy="0" rx="56" ry="80" transform="translate(830 560) rotate(14)"></ellipse>
    
    <ellipse cx="472" cy="332" rx="15" ry="17" fill="#F9506E" stroke="none"></ellipse>
    <ellipse cx="608" cy="332" rx="15" ry="17" fill="#F9506E" stroke="none"></ellipse>
    <ellipse cx="540" cy="366" rx="21" ry="15" fill="#F9506E" stroke="none"></ellipse>
    <path d="M 540 381 C 536 400, 518 400, 510 388 M 540 381 C 544 400, 562 400, 570 388" fill="none" stroke="#F9506E" stroke-width="8"></path>
  </g>
</svg>