<svg xmlns="http://www.w3.org/2000/svg" viewBox="0 0 1130 1090" width="1130" height="1090">
  <defs>
    <filter id="rough" x="-20%" y="-20%" width="140%" height="140%">
      <feTurbulence type="fractalNoise" baseFrequency="0.014 0.018" numOctaves="2" seed="7" result="noise"></feTurbulence>
      <feDisplacementMap in="SourceGraphic" in2="noise" scale="9" xChannelSelector="R" yChannelSelector="G"></feDisplacementMap>
    </filter>
  </defs>

  <g filter="url(#rough)" fill="none" stroke="#111111" stroke-width="22" stroke-linecap="round" stroke-linejoin="round">


    <path d="M 515 300&#xA;             C 460 232, 402 176, 345 150&#xA;             C 292 200, 232 332, 186 442&#xA;             C 152 542, 150 602, 166 662&#xA;             C 180 760, 202 842, 292 910&#xA;             C 372 966, 470 986, 565 980&#xA;             C 670 986, 770 962, 850 904&#xA;             C 930 844, 986 760, 1000 660&#xA;             C 1010 582, 1000 512, 958 436&#xA;             C 906 312, 872 204, 818 152&#xA;             C 760 180, 690 250, 628 302"></path>


    <path d="M 332 248 C 340 282, 346 312, 348 330"></path>

    <path d="M 792 252 C 786 286, 782 314, 780 332"></path>


    <path d="M 538 262 C 542 286, 546 306, 547 322"></path>
    <path d="M 573 256 C 575 282, 577 304, 578 322"></path>
    <path d="M 608 264 C 605 288, 602 308, 600 324"></path>


    <path d="M 68 600 C 130 596, 188 598, 235 606"></path>
    <path d="M 70 692 C 132 686, 190 686, 236 690"></path>

    <path d="M 935 576 C 990 580, 1042 584, 1082 586"></path>
    <path d="M 928 660 C 984 658, 1036 656, 1078 652"></path>


    <path d="M 528 638 C 540 660, 552 680, 560 692 C 570 678, 582 658, 594 636"></path>
  </g>


  <g filter="url(#rough)" fill="#111111">
    <ellipse cx="472" cy="556" rx="20" ry="30"></ellipse>
    <ellipse cx="652" cy="546" rx="20" ry="30"></ellipse>
  </g>
</svg>
