<svg xmlns="http://www.w3.org/2000/svg" viewBox="0 0 1100 1100" width="1100" height="1100">
  <defs>
    <filter id="rough" x="-20%" y="-20%" width="140%" height="140%">
      <feTurbulence type="fractalNoise" baseFrequency="0.014 0.018" numOctaves="2" seed="7" result="noise"></feTurbulence>
      <feDisplacementMap in="SourceGraphic" in2="noise" scale="10" xChannelSelector="R" yChannelSelector="G"></feDisplacementMap>
    </filter>
  </defs>

  <g filter="url(#rough)" fill="none" stroke="#3a9d52" stroke-width="30" stroke-linecap="round" stroke-linejoin="round">
    <path d="M 391.7 336.7 C 391.8 336.5, 390.4 335.6, 389.0 333.3 C 387.5 330.9, 384.9 327.3, 382.9 322.6 C 380.9 317.8, 378.3 311.6, 376.9 304.9 C 375.6 298.2, 374.4 290.1, 374.8 282.3 C 375.2 274.4, 376.5 265.6, 379.3 257.6 C 382.2 249.6, 386.5 241.4, 392.0 234.4 C 397.5 227.4, 404.6 220.8, 412.3 215.9 C 420.1 210.9, 429.3 206.9, 438.5 204.7 C 447.6 202.4, 457.8 201.5, 467.2 202.3 C 476.5 203.1, 486.3 205.5, 494.7 209.3 C 503.2 213.1, 511.2 218.7, 517.9 225.3 C 524.5 231.9, 530.2 240.1, 534.5 249.1 C 538.9 258.1, 541.9 268.4, 544.0 279.1 C 546.1 289.8, 546.8 301.6, 547.2 313.3 C 547.5 325.1, 546.7 337.6, 546.1 349.7 C 545.5 361.7, 544.2 374.1, 543.4 385.8 C 542.5 397.4, 541.6 409.0, 541.3 419.6 C 541.0 430.1, 540.9 440.1, 541.4 448.9 C 541.9 457.6, 543.0 465.6, 544.2 472.1 C 545.4 478.7, 547.2 484.1, 548.6 488.3 C 550.1 492.5, 552.0 495.4, 553.0 497.3 C 554.1 499.3, 555.1 499.9, 555.0 500.0 C 554.9 500.1, 554.3 499.1, 552.3 498.0 C 550.4 497.0, 547.5 495.1, 543.3 493.6 C 539.1 492.2, 533.7 490.4, 527.1 489.2 C 520.6 488.0, 512.6 486.9, 503.9 486.4 C 495.1 485.9, 485.1 486.0, 474.6 486.3 C 464.0 486.6, 452.4 487.5, 440.8 488.4 C 429.1 489.2, 416.7 490.5, 404.7 491.1 C 392.6 491.7, 380.1 492.5, 368.3 492.2 C 356.6 491.8, 344.8 491.1, 334.1 489.0 C 323.4 486.9, 313.1 483.9, 304.1 479.5 C 295.1 475.2, 286.9 469.5, 280.3 462.9 C 273.7 456.2, 268.1 448.2, 264.3 439.7 C 260.5 431.3, 258.1 421.5, 257.3 412.2 C 256.5 402.8, 257.4 392.6, 259.7 383.5 C 261.9 374.3, 265.9 365.1, 270.9 357.3 C 275.8 349.6, 282.4 342.5, 289.4 337.0 C 296.4 331.5, 304.6 327.2, 312.6 324.3 C 320.6 321.5, 329.4 320.2, 337.3 319.8 C 345.1 319.4, 353.2 320.6, 359.9 321.9 C 366.6 323.3, 372.8 325.9, 377.6 327.9 C 382.3 329.9, 385.9 332.5, 388.3 334.0 C 390.6 335.4, 391.5 336.8, 391.7 336.7 Z"></path>
    <path d="M 718.3 336.7 C 718.5 336.8, 719.4 335.4, 721.7 334.0 C 724.1 332.5, 727.7 329.9, 732.4 327.9 C 737.2 325.9, 743.4 323.3, 750.1 321.9 C 756.8 320.6, 764.9 319.4, 772.7 319.8 C 780.6 320.2, 789.4 321.5, 797.4 324.3 C 805.4 327.2, 813.6 331.5, 820.6 337.0 C 827.6 342.5, 834.2 349.6, 839.1 357.3 C 844.1 365.1, 848.1 374.3, 850.3 383.5 C 852.6 392.6, 853.5 402.8, 852.7 412.2 C 851.9 421.5, 849.5 431.3, 845.7 439.7 C 841.9 448.2, 836.3 456.2, 829.7 462.9 C 823.1 469.5, 814.9 475.2, 805.9 479.5 C 796.9 483.9, 786.6 486.9, 775.9 489.0 C 765.2 491.1, 753.4 491.8, 741.7 492.2 C 729.9 492.5, 717.4 491.7, 705.3 491.1 C 693.3 490.5, 680.9 489.2, 669.2 488.4 C 657.6 487.5, 646.0 486.6, 635.4 486.3 C 624.9 486.0, 614.9 485.9, 606.1 486.4 C 597.4 486.9, 589.4 488.0, 582.9 489.2 C 576.3 490.4, 570.9 492.2, 566.7 493.6 C 562.5 495.1, 559.6 497.0, 557.7 498.0 C 555.7 499.1, 555.1 500.1, 555.0 500.0 C 554.9 499.9, 555.9 499.3, 557.0 497.3 C 558.0 495.4, 559.9 492.5, 561.4 488.3 C 562.8 484.1, 564.6 478.7, 565.8 472.1 C 567.0 465.6, 568.1 457.6, 568.6 448.9 C 569.1 440.1, 569.0 430.1, 568.7 419.6 C 568.4 409.0, 567.5 397.4, 566.6 385.8 C 565.8 374.1, 564.5 361.7, 563.9 349.7 C 563.3 337.6, 562.5 325.1, 562.8 313.3 C 563.2 301.6, 563.9 289.8, 566.0 279.1 C 568.1 268.4, 571.1 258.1, 575.5 249.1 C 579.8 240.1, 585.5 231.9, 592.1 225.3 C 598.8 218.7, 606.8 213.1, 615.3 209.3 C 623.7 205.5, 633.5 203.1, 642.8 202.3 C 652.2 201.5, 662.4 202.4, 671.5 204.7 C 680.7 206.9, 689.9 210.9, 697.7 215.9 C 705.4 220.8, 712.5 227.4, 718.0 234.4 C 723.5 241.4, 727.8 249.6, 730.7 257.6 C 733.5 265.6, 734.8 274.4, 735.2 282.3 C 735.6 290.1, 734.4 298.2, 733.1 304.9 C 731.7 311.6, 729.1 317.8, 727.1 322.6 C 725.1 327.3, 722.5 330.9, 721.0 333.3 C 719.6 335.6, 718.2 336.5, 718.3 336.7 Z"></path>
    <path d="M 391.7 663.3 C 391.5 663.2, 390.6 664.6, 388.3 666.0 C 385.9 667.5, 382.3 670.1, 377.6 672.1 C 372.8 674.1, 366.6 676.7, 359.9 678.1 C 353.2 679.4, 345.1 680.6, 337.3 680.2 C 329.4 679.8, 320.6 678.5, 312.6 675.7 C 304.6 672.8, 296.4 668.5, 289.4 663.0 C 282.4 657.5, 275.8 650.4, 270.9 642.7 C 265.9 634.9, 261.9 625.7, 259.7 616.5 C 257.4 607.4, 256.5 597.2, 257.3 587.8 C 258.1 578.5, 260.5 568.7, 264.3 560.3 C 268.1 551.8, 273.7 543.8, 280.3 537.1 C 286.9 530.5, 295.1 524.8, 304.1 520.5 C 313.1 516.1, 323.4 513.1, 334.1 511.0 C 344.8 508.9, 356.6 508.2, 368.3 507.8 C 380.1 507.5, 392.6 508.3, 404.7 508.9 C 416.7 509.5, 429.1 510.8, 440.8 511.6 C 452.4 512.5, 464.0 513.4, 474.6 513.7 C 485.1 514.0, 495.1 514.1, 503.9 513.6 C 512.6 513.1, 520.6 512.0, 527.1 510.8 C 533.7 509.6, 539.1 507.8, 543.3 506.4 C 547.5 504.9, 550.4 503.0, 552.3 502.0 C 554.3 500.9, 554.9 499.9, 555.0 500.0 C 555.1 500.1, 554.1 500.7, 553.0 502.7 C 552.0 504.6, 550.1 507.5, 548.6 511.7 C 547.2 515.9, 545.4 521.3, 544.2 527.9 C 543.0 534.4, 541.9 542.4, 541.4 551.1 C 540.9 559.9, 541.0 569.9, 541.3 580.4 C 541.6 591.0, 542.5 602.6, 543.4 614.2 C 544.2 625.9, 545.5 638.3, 546.1 650.3 C 546.7 662.4, 547.5 674.9, 547.2 686.7 C 546.8 698.4, 546.1 710.2, 544.0 720.9 C 541.9 731.6, 538.9 741.9, 534.5 750.9 C 530.2 759.9, 524.5 768.1, 517.9 774.7 C 511.2 781.3, 503.2 786.9, 494.7 790.7 C 486.3 794.5, 476.5 796.9, 467.2 797.7 C 457.8 798.5, 447.6 797.6, 438.5 795.3 C 429.3 793.1, 420.1 789.1, 412.3 784.1 C 404.6 779.2, 397.5 772.6, 392.0 765.6 C 386.5 758.6, 382.2 750.4, 379.3 742.4 C 376.5 734.4, 375.2 725.6, 374.8 717.7 C 374.4 709.9, 375.6 701.8, 376.9 695.1 C 378.3 688.4, 380.9 682.2, 382.9 677.4 C 384.9 672.7, 387.5 669.1, 389.0 666.7 C 390.4 664.4, 391.8 663.5, 391.7 663.3 Z"></path>
    <path d="M 718.3 663.3 C 718.2 663.5, 719.6 664.4, 721.0 666.7 C 722.5 669.1, 725.1 672.7, 727.1 677.4 C 729.1 682.2, 731.7 688.4, 733.1 695.1 C 734.4 701.8, 735.6 709.9, 735.2 717.7 C 734.8 725.6, 733.5 734.4, 730.7 742.4 C 727.8 750.4, 723.5 758.6, 718.0 765.6 C 712.5 772.6, 705.4 779.2, 697.7 784.1 C 689.9 789.1, 680.7 793.1, 671.5 795.3 C 662.4 797.6, 652.2 798.5, 642.8 797.7 C 633.5 796.9, 623.7 794.5, 615.3 790.7 C 606.8 786.9, 598.8 781.3, 592.1 774.7 C 585.5 768.1, 579.8 759.9, 575.5 750.9 C 571.1 741.9, 568.1 731.6, 566.0 720.9 C 563.9 710.2, 563.2 698.4, 562.8 686.7 C 562.5 674.9, 563.3 662.4, 563.9 650.3 C 564.5 638.3, 565.8 625.9, 566.6 614.2 C 567.5 602.6, 568.4 591.0, 568.7 580.4 C 569.0 569.9, 569.1 559.9, 568.6 551.1 C 568.1 542.4, 567.0 534.4, 565.8 527.9 C 564.6 521.3, 562.8 515.9, 561.4 511.7 C 559.9 507.5, 558.0 504.6, 557.0 502.7 C 555.9 500.7, 554.9 500.1, 555.0 500.0 C 555.1 499.9, 555.7 500.9, 557.7 502.0 C 559.6 503.0, 562.5 504.9, 566.7 506.4 C 570.9 507.8, 576.3 509.6, 582.9 510.8 C 589.4 512.0, 597.4 513.1, 606.1 513.6 C 614.9 514.1, 624.9 514.0, 635.4 513.7 C 646.0 513.4, 657.6 512.5, 669.2 511.6 C 680.9 510.8, 693.3 509.5, 705.3 508.9 C 717.4 508.3, 729.9 507.5, 741.7 507.8 C 753.4 508.2, 765.2 508.9, 775.9 511.0 C 786.6 513.1, 796.9 516.1, 805.9 520.5 C 814.9 524.8, 823.1 530.5, 829.7 537.1 C 836.3 543.8, 841.9 551.8, 845.7 560.3 C 849.5 568.7, 851.9 578.5, 852.7 587.8 C 853.5 597.2, 852.6 607.4, 850.3 616.5 C 848.1 625.7, 844.1 634.9, 839.1 642.7 C 834.2 650.4, 827.6 657.5, 820.6 663.0 C 813.6 668.5, 805.4 672.8, 797.4 675.7 C 789.4 678.5, 780.6 679.8, 772.7 680.2 C 764.9 680.6, 756.8 679.4, 750.1 678.1 C 743.4 676.7, 737.2 674.1, 732.4 672.1 C 727.7 670.1, 724.1 667.5, 721.7 666.0 C 719.4 664.6, 718.5 663.2, 718.3 663.3 Z"></path>
    <path d="M 555 786 C 585 825, 608 880, 595 960"></path>
  </g>
</svg>