<svg xmlns="http://www.w3.org/2000/svg" viewBox="0 0 1100 1100" width="1100" height="1100">
  <defs>
    <filter id="rough" x="-20%" y="-20%" width="140%" height="140%">
      <feTurbulence type="fractalNoise" baseFrequency="0.013 0.016" numOctaves="2" seed="6" result="noise"></feTurbulence>
      <feDisplacementMap in="SourceGraphic" in2="noise" scale="7" xChannelSelector="R" yChannelSelector="G"></feDisplacementMap>
    </filter>
  </defs>

  <g filter="url(#rough)" fill="none" stroke="#111111" stroke-width="30" stroke-linecap="round" stroke-linejoin="round">
    <path d="M 723.2 650.0 C 736.4 627.2, 868.6 684.1, 911.4 667.4 C 954.2 650.8, 980.0 589.1, 980.0 550.0 C 980.0 510.9, 954.2 449.2, 911.4 432.6 C 868.6 415.9, 736.4 472.8, 723.2 450.0 C 710.0 427.2, 825.4 341.1, 832.4 295.7 C 839.4 250.3, 798.9 197.2, 765.0 177.6 C 731.1 158.0, 664.8 149.6, 629.0 178.3 C 593.2 207.0, 576.3 350.0, 550.0 350.0 C 523.7 350.0, 506.8 207.0, 471.0 178.3 C 435.2 149.6, 368.9 158.0, 335.0 177.6 C 301.1 197.2, 260.6 250.3, 267.6 295.7 C 274.6 341.1, 390.0 427.2, 376.8 450.0 C 363.6 472.8, 231.4 415.9, 188.6 432.6 C 145.8 449.2, 120.0 510.9, 120.0 550.0 C 120.0 589.1, 145.8 650.8, 188.6 667.4 C 231.4 684.1, 363.6 627.2, 376.8 650.0 C 390.0 672.8, 274.6 758.9, 267.6 804.3 C 260.6 849.7, 301.1 902.8, 335.0 922.4 C 368.9 942.0, 435.2 950.4, 471.0 921.7 C 506.8 893.0, 523.7 750.0, 550.0 750.0 C 576.3 750.0, 593.2 893.0, 629.0 921.7 C 664.8 950.4, 731.1 942.0, 765.0 922.4 C 798.9 902.8, 839.4 849.7, 832.4 804.3 C 825.4 758.9, 710.0 672.8, 723.2 650.0 Z"></path>
    <circle cx="550" cy="550" r="98"></circle>
  </g>
</svg>