<svg xmlns="http://www.w3.org/2000/svg" viewBox="0 0 1024 880" width="1024" height="880">
  <defs>
    <filter id="rough" x="-20%" y="-20%" width="140%" height="140%">
      <feTurbulence type="fractalNoise" baseFrequency="0.012 0.016" numOctaves="2" seed="5" result="noise"></feTurbulence>
      <feDisplacementMap in="SourceGraphic" in2="noise" scale="9" xChannelSelector="R" yChannelSelector="G"></feDisplacementMap>
    </filter>
  </defs>

  <g filter="url(#rough)" fill="none" stroke="#ee2a1d" stroke-width="40" stroke-linecap="round" stroke-linejoin="round">

    <path d="M 235 805&#xA;             C 360 625, 450 500, 506 420&#xA;             C 458 326, 358 198, 248 178&#xA;             C 118 196, 64 302, 80 412&#xA;             C 96 512, 232 520, 352 470&#xA;             C 442 432, 492 420, 508 415&#xA;             C 600 378, 662 248, 782 164&#xA;             C 902 130, 976 232, 956 360&#xA;             C 940 470, 800 500, 688 470&#xA;             C 598 446, 540 424, 512 418&#xA;             C 642 542, 802 660, 948 762"></path>
  </g>
</svg>