<svg xmlns="http://www.w3.org/2000/svg" viewBox="0 0 1100 1100" width="1100" height="1100">
  <defs>
    <filter id="rough" x="-20%" y="-20%" width="140%" height="140%">
      <feTurbulence type="fractalNoise" baseFrequency="0.013 0.016" numOctaves="2" seed="14" result="noise"></feTurbulence>
      <feDisplacementMap in="SourceGraphic" in2="noise" scale="9" xChannelSelector="R" yChannelSelector="G"></feDisplacementMap>
    </filter>
  </defs>

  <g filter="url(#rough)">
    <path d="M 758.5 540.0 C 757.2 558.4, 752.7 576.9, 746.8 594.1 C 741.0 611.3, 732.8 627.7, 723.5 643.1 C 714.2 658.4, 703.4 672.9, 691.2 686.2 C 679.0 699.4, 665.4 712.1, 650.4 722.6 C 635.4 733.1, 618.6 742.8, 601.1 749.3 C 583.5 755.7, 564.0 760.4, 545.0 761.4 C 526.0 762.4, 505.7 760.4, 487.3 755.3 C 469.0 750.2, 450.6 741.4, 434.8 730.9 C 419.0 720.4, 404.7 706.5, 392.7 692.3 C 380.8 678.0, 370.9 661.6, 362.9 645.1 C 354.9 628.7, 348.9 611.2, 344.5 593.7 C 340.2 576.2, 337.5 558.1, 336.9 540.0 C 336.3 521.9, 337.4 503.2, 341.1 485.4 C 344.8 467.5, 350.7 449.1, 359.2 432.7 C 367.7 416.3, 379.0 400.2, 391.9 386.9 C 404.9 373.6, 420.6 361.8, 436.9 352.7 C 453.1 343.7, 471.5 337.1, 489.5 332.8 C 507.5 328.5, 526.6 326.8, 545.0 327.0 C 563.4 327.2, 582.2 329.7, 600.2 334.2 C 618.1 338.6, 636.1 345.2, 652.5 353.8 C 668.9 362.5, 685.1 373.4, 698.8 386.2 C 712.4 399.0, 725.0 414.4, 734.4 430.7 C 743.7 446.9, 750.9 465.5, 754.9 483.8 C 758.9 502.0, 759.8 521.6, 758.5 540.0 Z" fill="#EAF1FA" stroke="#6E95CB" stroke-width="22" stroke-linecap="round" stroke-linejoin="round"></path>
    <path d="M 481 420 C 442 416, 421 452, 423 506 C 423 528, 424 540, 425 552" fill="none" stroke="#6E95CB" stroke-width="17" stroke-linecap="round"></path>
    <circle cx="440" cy="612" r="15" fill="#6E95CB"></circle>
  </g>
</svg>