<svg xmlns="http://www.w3.org/2000/svg" viewBox="0 0 1100 1100" width="1100" height="1100">
  <defs>
    <filter id="rough" x="-20%" y="-20%" width="140%" height="140%">
      <feTurbulence type="fractalNoise" baseFrequency="0.011 0.014" numOctaves="2" seed="5" result="noise"></feTurbulence>
      <feDisplacementMap in="SourceGraphic" in2="noise" scale="8" xChannelSelector="R" yChannelSelector="G"></feDisplacementMap>
    </filter>
  </defs>

  <g filter="url(#rough)">
    <path d="M 882.9 550.0 C 906.5 541.6, 930.5 529.8, 941.9 519.2 C 953.4 508.6, 957.3 495.6, 951.6 486.4 C 945.9 477.2, 928.1 468.6, 907.7 464.1 C 887.3 459.6, 855.7 458.7, 829.1 459.3 C 802.6 459.9, 770.7 465.0, 748.2 467.9 C 725.7 470.8, 705.8 476.0, 694.2 476.5 C 682.6 477.1, 678.4 476.6, 678.6 471.2 C 678.8 465.8, 686.0 457.6, 695.6 444.2 C 705.2 430.8, 722.7 411.1, 736.3 390.9 C 750.0 370.6, 767.5 344.0, 777.3 322.7 C 787.2 301.3, 795.0 277.4, 795.4 262.6 C 795.8 247.8, 789.7 236.3, 779.8 233.8 C 769.8 231.2, 752.2 236.9, 735.6 247.2 C 718.9 257.5, 697.2 277.5, 679.7 295.4 C 662.3 313.3, 644.2 337.9, 630.9 354.7 C 617.6 371.6, 607.5 388.4, 599.9 396.5 C 592.2 404.6, 588.8 407.3, 585.2 403.4 C 581.6 399.5, 580.7 389.0, 578.0 373.1 C 575.3 357.1, 573.7 331.4, 569.1 307.7 C 564.4 283.9, 558.1 253.0, 550.0 230.8 C 541.9 208.6, 530.7 185.8, 520.5 174.7 C 510.3 163.6, 497.8 159.1, 488.9 164.0 C 479.9 168.8, 471.4 184.8, 466.9 203.7 C 462.3 222.5, 461.0 252.0, 461.3 277.1 C 461.7 302.1, 466.3 332.6, 468.8 354.1 C 471.4 375.6, 476.3 394.9, 476.7 406.1 C 477.1 417.3, 476.6 421.6, 471.2 421.4 C 465.9 421.2, 457.8 414.3, 444.5 404.8 C 431.3 395.4, 411.8 378.1, 391.7 364.7 C 371.6 351.2, 345.3 333.8, 324.1 324.1 C 302.9 314.4, 279.2 306.6, 264.6 306.2 C 250.0 305.9, 238.7 312.1, 236.3 322.1 C 233.9 332.1, 239.8 349.6, 250.1 366.2 C 260.4 382.8, 280.4 404.4, 298.1 421.7 C 315.8 438.9, 339.9 456.7, 356.4 469.8 C 372.9 482.9, 389.1 492.8, 397.0 500.3 C 404.8 507.8, 407.1 511.1, 403.4 514.8 C 399.7 518.5, 389.7 519.5, 374.9 522.3 C 360.1 525.0, 336.2 526.9, 314.7 531.5 C 293.2 536.1, 265.4 542.3, 246.0 550.0 C 226.6 557.7, 207.1 568.2, 198.1 577.7 C 189.1 587.1, 186.6 598.5, 191.9 606.7 C 197.2 614.9, 212.5 622.5, 229.8 626.9 C 247.1 631.2, 273.5 632.5, 295.6 632.6 C 317.8 632.8, 344.2 629.2, 362.8 627.5 C 381.5 625.8, 398.0 622.3, 407.8 622.5 C 417.5 622.7, 421.3 623.7, 421.5 628.7 C 421.7 633.7, 416.4 641.0, 409.0 652.5 C 401.6 663.9, 387.8 680.5, 377.2 697.6 C 366.5 714.7, 352.7 736.9, 345.1 754.9 C 337.4 773.0, 331.3 793.2, 331.3 806.1 C 331.3 818.9, 336.5 829.2, 345.1 832.1 C 353.6 834.9, 368.4 831.1, 382.5 823.3 C 396.7 815.4, 415.2 799.5, 430.2 785.1 C 445.2 770.7, 460.9 750.5, 472.7 736.6 C 484.4 722.8, 493.6 708.6, 500.6 701.9 C 507.7 695.2, 511.2 692.9, 514.8 696.5 C 518.5 700.1, 519.7 709.2, 522.5 723.5 C 525.3 737.8, 527.1 760.8, 531.7 782.4 C 536.3 804.1, 542.3 832.6, 550.0 853.4 C 557.7 874.2, 568.3 896.1, 578.1 907.3 C 587.9 918.5, 599.9 924.0, 608.7 920.5 C 617.4 917.0, 626.0 903.2, 630.7 886.2 C 635.5 869.1, 637.2 841.8, 637.2 818.3 C 637.2 794.7, 633.0 765.5, 630.7 744.8 C 628.4 724.0, 623.6 704.9, 623.3 693.8 C 623.0 682.8, 623.4 678.3, 628.8 678.6 C 634.2 678.9, 642.2 685.8, 655.9 695.7 C 669.5 705.7, 689.6 723.7, 710.7 738.2 C 731.8 752.6, 759.7 771.5, 782.5 782.5 C 805.2 793.4, 831.1 802.7, 847.3 803.9 C 863.6 805.1, 876.6 799.7, 879.9 789.7 C 883.2 779.7, 877.6 761.6, 866.9 744.2 C 856.1 726.7, 834.6 703.7, 815.2 685.1 C 795.8 666.6, 769.0 647.2, 750.5 633.1 C 732.1 618.9, 713.5 608.2, 704.5 600.2 C 695.5 592.2, 692.5 588.8, 696.7 585.2 C 700.9 581.6, 712.3 581.0, 729.6 578.4 C 746.9 575.9, 774.9 574.5, 800.4 569.7 C 826.0 565.0, 859.4 558.4, 882.9 550.0 Z" fill="#F6A700"></path>
  </g>
</svg>