<svg xmlns="http://www.w3.org/2000/svg" viewBox="0 0 1100 1100" width="1100" height="1100">
  <defs>
    <filter id="rough" x="-20%" y="-20%" width="140%" height="140%">
      <feTurbulence type="fractalNoise" baseFrequency="0.011 0.013" numOctaves="2" seed="4" result="noise"></feTurbulence>
      <feDisplacementMap in="SourceGraphic" in2="noise" scale="12" xChannelSelector="R" yChannelSelector="G"></feDisplacementMap>
    </filter>
  </defs>

  <g filter="url(#rough)">
    <path d="M 917.4 575.0 C 914.8 593.0, 910.4 610.9, 905.0 627.9 C 899.6 645.0, 892.6 661.6, 885.0 677.5 C 877.3 693.4, 868.4 708.6, 858.9 723.2 C 849.3 737.8, 838.9 751.8, 827.7 765.0 C 816.5 778.2, 804.5 790.9, 791.7 802.7 C 779.0 814.4, 765.4 825.6, 751.1 835.7 C 736.8 845.7, 721.6 855.1, 705.9 863.1 C 690.1 871.1, 673.5 878.2, 656.5 883.7 C 639.6 889.3, 621.8 893.7, 604.1 896.5 C 586.3 899.3, 568.0 900.8, 550.0 900.7 C 532.0 900.7, 513.7 899.1, 496.0 896.3 C 478.2 893.4, 460.5 889.1, 443.5 883.6 C 426.5 878.2, 409.8 871.4, 393.8 863.6 C 377.9 855.9, 362.4 847.0, 347.7 837.3 C 332.9 827.5, 318.8 816.8, 305.5 805.3 C 292.2 793.7, 279.5 781.3, 267.8 768.1 C 256.1 754.9, 245.0 740.8, 235.3 726.0 C 225.5 711.2, 216.6 695.5, 209.2 679.3 C 201.9 663.0, 195.6 645.9, 191.2 628.5 C 186.8 611.1, 183.8 593.0, 182.9 575.0 C 182.0 557.0, 182.8 538.5, 185.6 520.7 C 188.4 502.8, 193.3 484.8, 199.8 467.8 C 206.4 450.9, 215.0 434.3, 224.9 419.0 C 234.8 403.7, 246.7 389.2, 259.3 376.1 C 271.9 363.0, 286.1 351.0, 300.7 340.2 C 315.3 329.5, 331.0 320.0, 346.8 311.6 C 362.6 303.1, 379.0 295.9, 395.5 289.5 C 412.0 283.1, 428.9 277.7, 445.8 273.0 C 462.8 268.3, 479.9 264.4, 497.2 261.2 C 514.6 258.0, 532.1 255.4, 550.0 253.8 C 567.9 252.2, 586.0 251.3, 604.4 251.6 C 622.7 251.9, 641.5 253.0, 660.1 255.8 C 678.8 258.5, 697.8 262.3, 716.1 268.0 C 734.5 273.6, 753.0 280.7, 770.2 289.6 C 787.4 298.5, 804.4 309.1, 819.5 321.2 C 834.7 333.2, 849.0 347.2, 861.2 362.1 C 873.4 377.0, 884.2 393.6, 892.7 410.6 C 901.3 427.6, 907.9 445.9, 912.5 464.1 C 917.2 482.3, 919.7 501.3, 920.5 519.7 C 921.3 538.2, 920.0 557.0, 917.4 575.0 Z" fill="#EE4B45"></path>
    <path d="M 512 250 C 506 200, 496 168, 488 145 C 485 138, 474 138, 471 147 C 466 172, 476 215, 492 258 Z" fill="#6FA866"></path>
    <path d="M 551.4 271.3 C 548.0 261.1, 576.5 246.3, 584.1 226.9 C 591.7 207.4, 605.7 160.8, 597.0 154.5 C 588.3 148.2, 548.3 175.8, 532.1 189.1 C 516.0 202.3, 510.7 234.0, 500.0 234.0 C 489.3 234.0, 484.0 202.3, 467.9 189.1 C 451.7 175.8, 411.7 148.2, 403.0 154.5 C 394.3 160.8, 408.3 207.4, 415.9 226.9 C 423.5 246.3, 452.0 261.1, 448.6 271.3 C 445.3 281.5, 413.6 276.7, 396.0 288.0 C 378.4 299.3, 339.8 328.8, 343.1 339.0 C 346.4 349.2, 395.0 350.3, 415.9 349.1 C 436.7 347.9, 459.6 325.4, 468.3 331.7 C 476.9 338.0, 462.6 366.7, 467.9 386.9 C 473.2 407.1, 489.3 453.0, 500.0 453.0 C 510.7 453.0, 526.8 407.1, 532.1 386.9 C 537.4 366.7, 523.1 338.0, 531.7 331.7 C 540.4 325.4, 563.3 347.9, 584.1 349.1 C 605.0 350.3, 653.6 349.2, 656.9 339.0 C 660.2 328.8, 621.6 299.3, 604.0 288.0 C 586.4 276.7, 554.7 281.5, 551.4 271.3 Z" fill="#6FA866"></path>
  </g>
</svg>