<svg xmlns="http://www.w3.org/2000/svg" viewBox="0 0 1100 1100" width="1100" height="1100">
  <defs>
    <filter id="rough" x="-20%" y="-20%" width="140%" height="140%">
      <feTurbulence type="fractalNoise" baseFrequency="0.014 0.018" numOctaves="2" seed="8" result="noise"></feTurbulence>
      <feDisplacementMap in="SourceGraphic" in2="noise" scale="9" xChannelSelector="R" yChannelSelector="G"></feDisplacementMap>
    </filter>
  </defs>

  <g filter="url(#rough)" fill="none" stroke="#15A37B" stroke-width="22" stroke-linecap="round" stroke-linejoin="round">
    <path d="M 520 250 L 560 250 L 658 372 Q 540 394 422 372 Z"></path>
    <path d="M 448 400 L 632 400 L 748 532 Q 540 554 332 532 Z"></path>
    <path d="M 380 560 L 700 560 L 828 694 Q 540 716 252 694 Z"></path>
    <path d="M 308 722 L 772 722 L 915 876 Q 540 898 165 876 Z"></path>
  </g>
  <g filter="url(#rough)">
    <path d="M 560.0 157.5 C 555.2 154.0, 557.7 144.1, 554.3 135.0 C 551.0 125.9, 544.8 103.0, 540.0 103.0 C 535.2 103.0, 529.0 125.9, 525.7 135.0 C 522.3 144.1, 524.8 154.0, 520.0 157.5 C 515.2 161.0, 506.6 155.6, 496.9 155.9 C 487.2 156.3, 463.5 155.1, 462.0 159.7 C 460.5 164.2, 480.4 177.2, 488.0 183.2 C 495.6 189.2, 505.8 189.9, 507.7 195.5 C 509.5 201.1, 501.7 207.7, 499.0 217.0 C 496.4 226.3, 487.9 248.5, 491.8 251.3 C 495.7 254.1, 514.2 239.3, 522.2 233.9 C 530.2 228.5, 534.1 219.0, 540.0 219.0 C 545.9 219.0, 549.8 228.5, 557.8 233.9 C 565.8 239.3, 584.3 254.1, 588.2 251.3 C 592.1 248.5, 583.6 226.3, 581.0 217.0 C 578.3 207.7, 570.5 201.1, 572.3 195.5 C 574.2 189.9, 584.4 189.2, 592.0 183.2 C 599.6 177.2, 619.5 164.2, 618.0 159.7 C 616.5 155.1, 592.8 156.3, 583.1 155.9 C 573.4 155.6, 564.8 161.0, 560.0 157.5 Z" fill="#F5C518"></path>
  </g>
</svg>